<svg width="145" height="30" viewBox="0 0 145 30" fill="none" xmlns="http://www.w3.org/2000/svg">
<path d="M75.9366 20.4567C76.5199 19.7266 76.8115 18.8213 76.8115 17.7407C76.8115 16.6601 76.5199 15.7548 75.9074 15.0247C75.3241 14.2946 74.5367 13.8273 73.6034 13.5937C72.991 13.4476 71.8827 13.36 70.1912 13.36H66.7789V28.6924H69.4037V22.1506H69.7829C71.5911 22.1506 72.816 22.063 73.5159 21.9169C74.5367 21.6541 75.3533 21.1576 75.9366 20.4567ZM73.8659 18.7336C73.6909 19.0257 73.4284 19.2301 73.1076 19.3469C72.8452 19.4346 72.3202 19.5806 71.2119 19.5806L69.4329 19.5514V15.9592H71.2994C72.3785 15.9592 72.9035 16.076 73.1368 16.1637C73.4285 16.2805 73.6618 16.4849 73.8659 16.777C74.0701 17.069 74.1576 17.3902 74.1576 17.7407C74.1284 18.1204 74.0409 18.4416 73.8659 18.7336ZM11.4829 13.36H7.77901L2.99602 17.8575V13.36H0.342041V28.6924H2.99602V23.0559L8.30397 28.6924H11.862L4.01678 20.3399L11.4829 13.36ZM34.2604 23.1435L25.7735 13.36H24.5778V28.6924H27.2609V19.0549L35.6603 28.6924H36.8561V13.36H34.2313V23.1435H34.2604ZM15.7993 28.6924H18.4241V13.36H15.7993V28.6924ZM49.5427 23.2895H53.8882C53.6549 24.1365 53.1882 24.8082 52.4883 25.3923C51.6133 26.1224 50.5051 26.4728 49.1927 26.4728C48.1136 26.4728 47.0928 26.21 46.1887 25.7135C45.2846 25.217 44.5847 24.5453 44.0597 23.6692C43.5639 22.8223 43.3014 21.8877 43.3014 20.9532C43.3014 20.0186 43.5639 19.1425 44.0306 18.3248C44.5264 17.5071 45.2263 16.8354 46.1304 16.3389C47.822 15.4335 49.6302 15.3459 51.4967 16.1345C52.3425 16.5141 53.1591 17.0398 53.8882 17.7699L54.2965 18.1788L56.2797 16.2805L55.813 15.8424C54.7631 14.8495 53.6549 14.0901 52.5466 13.6521C51.4092 13.1848 50.2135 12.9512 48.9302 12.9512C47.3553 12.9512 45.9263 13.3016 44.6722 14.0025C43.4181 14.7034 42.3973 15.6964 41.6682 16.923C40.9391 18.1788 40.5891 19.5222 40.5891 20.9532C40.5891 22.8807 41.2308 24.6329 42.4848 26.0932C44.1181 28.0207 46.3637 28.9844 49.1344 28.9844C51.4384 28.9844 53.3049 28.2835 54.7048 26.8817C56.1047 25.4799 56.8046 23.5816 56.8338 21.2452V20.6319H49.5427V23.2895ZM139.865 22.0922C140.594 22.0045 141.207 21.8585 141.703 21.6541C142.49 21.3036 143.103 20.778 143.511 20.1063C143.919 19.4346 144.153 18.646 144.153 17.7407C144.153 16.6893 143.832 15.7548 143.219 15.0247C142.607 14.2946 141.819 13.7981 140.857 13.5937C140.244 13.4476 139.165 13.3892 137.532 13.3892H134.032V28.6924H136.657V22.209L141.674 28.6924H144.969L139.865 22.0922ZM136.657 19.5514V15.9592H138.611C139.72 15.9592 140.215 16.076 140.449 16.1637C140.74 16.2805 140.974 16.4849 141.178 16.777C141.382 17.069 141.469 17.361 141.469 17.7407C141.469 18.1204 141.382 18.4416 141.178 18.7336C141.003 19.0257 140.74 19.2301 140.419 19.3469C140.157 19.4638 139.632 19.5806 138.553 19.5806L136.657 19.5514ZM86.9025 13.0096C85.4734 13.0096 84.1318 13.36 82.9069 14.0609C81.682 14.7618 80.7196 15.7548 79.9905 17.0106C79.2905 18.2664 78.9406 19.639 78.9406 21.0992C78.9406 23.2895 79.728 25.1878 81.2737 26.7357C82.8194 28.2835 84.7443 29.072 86.99 29.072C89.2065 29.072 91.1313 28.2835 92.6771 26.7357C94.2228 25.1878 95.0102 23.2603 95.0102 21.0408C95.0102 18.7921 94.2228 16.8646 92.6771 15.3459C91.1313 13.7981 89.2065 13.0096 86.9025 13.0096ZM91.6563 23.786C91.1897 24.6037 90.548 25.2754 89.7023 25.7427C88.8565 26.21 87.9524 26.4728 86.9608 26.4728C85.5026 26.4728 84.2193 25.9471 83.1986 24.925C82.1487 23.9028 81.6237 22.6178 81.6237 21.0992C81.6237 20.0771 81.857 19.1425 82.3236 18.3248C82.7903 17.5071 83.4611 16.8354 84.2777 16.3389C85.1234 15.8424 85.9984 15.6088 86.9316 15.6088C87.8941 15.6088 88.7982 15.8424 89.644 16.3389C90.4897 16.8354 91.1605 17.4779 91.6271 18.2956C92.0938 19.1133 92.3271 20.0186 92.3271 21.0408C92.3562 22.0338 92.1229 22.9683 91.6563 23.786ZM129.249 26.0932H121.958V21.7709H128.316V19.1717H121.958V15.9592H129.249V13.36H119.304V28.6924H129.249V26.0932ZM115.455 13.36H112.742L110.176 22.2382L106.676 13.36H105.539L102.01 22.2382L99.5016 13.36H96.7893L101.135 28.6924H102.272L106.122 19.0549L109.884 28.6924H111.022L115.455 13.36Z" fill="white"/>
<path d="M13.2197 6.73088C12.9864 5.91315 12.4031 3.72282 13.8905 3.16794C14.0071 3.13873 14.0654 3.02191 14.0363 2.9343C14.0363 2.84669 13.9488 2.75907 13.803 2.75907C12.0823 2.75907 11.4698 1.6493 11.149 1.06522C11.0907 0.977603 11.0615 0.88999 11.0323 0.831581C10.9448 0.714763 10.7699 0.685559 10.6824 0.802376C10.6532 0.831581 10.624 0.948399 10.6824 1.09442C10.8282 1.50328 12.4322 5.82554 12.8114 6.8769L12.8989 7.08133C12.928 7.16894 13.0155 7.25656 13.1322 7.25656C13.1905 7.25656 13.2488 7.22735 13.278 7.16894C13.3072 7.11053 13.3363 7.05212 13.3072 6.96451C13.278 6.9061 13.2488 6.84769 13.2197 6.73088ZM15.3487 3.10953C17.1569 3.40157 17.4485 4.83259 17.6527 6.96451C17.6818 7.22735 17.8568 7.25656 17.886 7.25656C17.9152 7.25656 18.0901 7.25656 18.1193 6.96451C18.3526 4.83259 18.6151 3.40157 20.4233 3.10953C20.54 3.08032 20.6275 2.99271 20.6275 2.87589C20.6275 2.78828 20.5691 2.67146 20.3941 2.67146C18.6443 2.52544 18.3818 1.41567 18.1776 0.62715C18.1485 0.510332 18.1193 0.422719 18.0902 0.335106C18.061 0.10147 17.9443 0.0722656 17.886 0.0722656C17.8277 0.0722656 17.711 0.10147 17.6527 0.305901C17.6235 0.393514 17.5944 0.510332 17.5652 0.597945C17.361 1.41567 17.0986 2.52544 15.3487 2.64226C15.1737 2.64226 15.1154 2.75907 15.1154 2.84669C15.1445 2.99271 15.232 3.08032 15.3487 3.10953ZM22.144 8.33712H13.628C13.5696 8.33712 13.5113 8.36632 13.453 8.42473C13.4238 8.48314 13.3947 8.54155 13.4238 8.59996L13.6863 9.30087C13.7155 9.38848 13.803 9.44689 13.8905 9.44689H21.9107C21.9982 9.44689 22.0857 9.38848 22.1149 9.30087L22.3773 8.59996C22.4065 8.54155 22.3773 8.48314 22.3482 8.42473C22.2898 8.36632 22.2023 8.33712 22.144 8.33712ZM25.1188 0.802376C25.0313 0.685559 24.8563 0.685559 24.7688 0.831581C24.7397 0.88999 24.6813 0.948399 24.623 1.03601C24.3022 1.6201 23.6897 2.72987 21.969 2.72987C21.8232 2.72987 21.7357 2.81748 21.7357 2.9051C21.7066 3.02191 21.7649 3.10953 21.8815 3.16794C23.3689 3.72282 22.7856 5.91315 22.5523 6.73088C22.5232 6.81849 22.494 6.9061 22.494 6.96451C22.4648 7.05212 22.494 7.11053 22.5232 7.16894C22.5523 7.22735 22.6107 7.25656 22.669 7.25656C22.7565 7.25656 22.844 7.19815 22.9023 7.08133L22.9315 6.96451C23.2231 6.17599 24.9438 1.50328 25.1188 1.09442C25.1771 0.919194 25.148 0.831581 25.1188 0.802376Z" fill="#EAA216"/>
</svg>
